<?xml version="1.0" encoding="utf-8"?>
<!-- Generator: Adobe Illustrator 17.1.0, SVG Export Plug-In . SVG Version: 6.00 Build 0)  -->
<!DOCTYPE svg PUBLIC "-//W3C//DTD SVG 1.1//EN" "http://www.w3.org/Graphics/SVG/1.1/DTD/svg11.dtd">
<svg version="1.1" id="Calque_1" xmlns="http://www.w3.org/2000/svg" xmlns:xlink="http://www.w3.org/1999/xlink" x="0px" y="0px"
	 viewBox="0 0 244.7 120" enable-background="new 0 0 244.7 120" xml:space="preserve">
<g>
	<g>
		<path d="M108.3,16.3c2.3,0,4.7,0,7,0c0,28.3,0,56.7,0,85c-2.3,0-4.7,0-7,0C108.3,73,108.3,44.7,108.3,16.3z"/>
		<path d="M167.3,16.3c2.3,0,4.7,0,7,0c0,28.3,0,56.7,0,85c-2.3,0-4.7,0-7,0C167.3,73,167.3,44.7,167.3,16.3z"/>
		<path d="M18.3,16.3c2.3,0,4.7,0,7,0c0,28.3,0,56.7,0,85c-2.3,0-4.7,0-7,0C18.3,73,18.3,44.7,18.3,16.3z"/>
		<path d="M207.3,101.3c-2.3,0-4.7,0-7,0c0-28.3,0-56.7,0-85c2.3,0,4.7,0,7,0C207.3,44.7,207.3,73,207.3,101.3z"/>
		<path d="M70.3,16.3c2.3,0,4.7,0,7,0c0,28.3,0,56.7,0,85c-2.3,0-4.7,0-7,0C70.3,73,70.3,44.7,70.3,16.3z"/>
		<path d="M51.3,16.3c2.3,0,4.7,0,7,0c0,28.3,0,56.7,0,85c-2.3,0-4.7,0-7,0C51.3,73,51.3,44.7,51.3,16.3z"/>
		<path d="M136.3,101.3c0-28.3,0-56.7,0-85c1.7,0,3.3,0,5,0c0,28.3,0,56.7,0,85C139.7,101.3,138,101.3,136.3,101.3z"/>
		<path d="M89.3,16.3c0,28.3,0,56.7,0,85c-1.7,0-3.3,0-5,0c0-28.3,0-56.7,0-85C86,16.3,87.7,16.3,89.3,16.3z"/>
		<path d="M44.3,16.3c1.7,0,3.3,0,5,0c0,28.3,0,56.7,0,85c-1.7,0-3.3,0-5,0C44.3,73,44.3,44.7,44.3,16.3z"/>
		<path d="M65.3,16.3c0,28.3,0,56.7,0,85c-1.3,0-2.7,0-4,0c0-28.3,0-56.7,0-85C62.7,16.3,64,16.3,65.3,16.3z"/>
		<path d="M39.3,101.3c-1.3,0-2.7,0-4,0c0-28.3,0-56.7,0-85c1.3,0,2.7,0,4,0"/>
		<path d="M94.3,101.3c0-28.3,0-56.7,0-85c1.3,0,2.7,0,4,0c0,28.3,0,56.7,0,85C97,101.3,95.7,101.3,94.3,101.3z"/>
		<path d="M28.3,16.3c1.3,0,2.7,0,4,0c0,28.3,0,56.7,0,85c-1.3,0-2.7,0-4,0C28.3,73,28.3,44.7,28.3,16.3z"/>
		<path d="M101.3,16.3c1.3,0,2.7,0,4,0c0,28.3,0,56.7,0,85c-1.3,0-2.7,0-4,0C101.3,73,101.3,44.7,101.3,16.3z"/>
		<path d="M131.3,16.3c0,28.3,0,56.7,0,85c-1.3,0-2.7,0-4,0c0-28.3,0-56.7,0-85C128.7,16.3,130,16.3,131.3,16.3z"/>
		<path d="M146.3,16.3c0,28.3,0,56.7,0,85c-1,0-2,0-3,0c0-28.3,0-56.7,0-85C144.3,16.3,145.3,16.3,146.3,16.3z"/>
		<path d="M176.3,16.3c1,0,2,0,3,0c0,28.3,0,56.7,0,85c-1,0-2,0-3,0C176.3,73,176.3,44.7,176.3,16.3z"/>
		<path d="M212.3,16.3c0,28.3,0,56.7,0,85c-1,0-2,0-3,0c0-28.3,0-56.7,0-85C210.3,16.3,211.3,16.3,212.3,16.3z"/>
		<path d="M120.3,101.3c-1,0-2,0-3,0c0-28.3,0-56.7,0-85c1,0,2,0,3,0C120.3,44.7,120.3,73,120.3,101.3z"/>
		<path d="M216.3,101.3c0-28.3,0-56.7,0-85c1,0,2,0,3,0c0,28.3,0,56.7,0,85C218.3,101.3,217.3,101.3,216.3,101.3z"/>
		<path d="M82.3,101.3c-1,0-2,0-3,0c0-28.3,0-56.7,0-85c1,0,2,0,3,0C82.3,44.7,82.3,73,82.3,101.3z"/>
		<path fill="#FFFFFF" d="M32.3,16.3c1,0,2,0,3,0c0,28.3,0,56.7,0,85c-1,0-2,0-3,0"/>
		<path d="M16.3,101.3c-1,0-2,0-3,0c0-28.3,0-56.7,0-85c1,0,2,0,3,0C16.3,44.7,16.3,73,16.3,101.3z"/>
		<path d="M233.3,16.3c0,28.3,0,56.7,0,85c-1,0-2,0-3,0c0-28.3,0-56.7,0-85C231.3,16.3,232.3,16.3,233.3,16.3z"/>
		<path d="M226.3,101.3c0-28.3,0-56.7,0-85c0.7,0,1.3,0,2,0c0,28.3,0,56.7,0,85C227.7,101.3,227,101.3,226.3,101.3z"/>
		<path d="M195.3,16.3c0,28.3,0,56.7,0,85c-0.7,0-1.3,0-2,0c0-28.3,0-56.7,0-85C194,16.3,194.7,16.3,195.3,16.3z"/>
		<path d="M183.3,16.3c0,28.3,0,56.7,0,85c-0.7,0-1.3,0-2,0c0-28.3,0-56.7,0-85C182,16.3,182.7,16.3,183.3,16.3z"/>
		<path fill="#FFFFFF" d="M181.3,101.3c-0.7,0-1.3,0-2,0c0-28.3,0-56.7,0-85c0.7,0,1.3,0,2,0"/>
		<path d="M162.3,16.3c0,28.3,0,56.7,0,85c-0.7,0-1.3,0-2,0c0-28.3,0-56.7,0-85C161,16.3,161.7,16.3,162.3,16.3z"/>
		<path d="M155.3,16.3c0,28.3,0,56.7,0,85c-0.7,0-1.3,0-2,0c0-28.3,0-56.7,0-85C154,16.3,154.7,16.3,155.3,16.3z"/>
		<path d="M124.3,16.3c0,28.3,0,56.7,0,85c-0.7,0-1.3,0-2,0c0-28.3,0-56.7,0-85C123,16.3,123.7,16.3,124.3,16.3z"/>
		<path fill="#FFFFFF" d="M120.3,16.3c0.7,0,1.3,0,2,0c0,28.3,0,56.7,0,85c-0.7,0-1.3,0-2,0"/>
		<path d="M11.3,16.3c0,28.3,0,56.7,0,85c-0.7,0-1.3,0-2,0c0-28.3,0-56.7,0-85C10,16.3,10.7,16.3,11.3,16.3z"/>
	</g>
	<polyline fill="none" points="271.3,28.3 271.3,15.3 -30.7,15.3 -30.7,28.3 	"/>
</g>
</svg>
