<?xml version="1.0" encoding="utf-8"?>
<!-- Generator: Adobe Illustrator 17.0.0, SVG Export Plug-In . SVG Version: 6.00 Build 0)  -->
<!DOCTYPE svg PUBLIC "-//W3C//DTD SVG 1.1//EN" "http://www.w3.org/Graphics/SVG/1.1/DTD/svg11.dtd">
<svg version="1.1" xmlns="http://www.w3.org/2000/svg" xmlns:xlink="http://www.w3.org/1999/xlink" x="0px" y="0px" width="100px"
	 height="100px" viewBox="0 0 100 100" enable-background="new 0 0 100 100" xml:space="preserve">
<g id="Calque_1">
</g>
<g id="Calque_2">
	<circle fill="#FFFFFF" cx="43.406" cy="42.726" r="41.406"/>
	<path fill="#333333" d="M68.108,23.777c0.767-2.3,0.623-4.073-0.432-5.319c-1.246-1.054-3.019-1.198-5.32-0.432
		c-2.301,0.767-4.361,2.061-6.182,3.882l-5.751,5.751l-23.9-5.714c-0.383-0.12-0.743-0.024-1.078,0.287l-4.601,4.601
		c-0.263,0.264-0.371,0.587-0.323,0.971c0.072,0.384,0.276,0.671,0.611,0.863l18.258,10.027L30.082,48l-6.973-1.904
		c-0.048-0.024-0.143-0.036-0.287-0.036c-0.336,0-0.611,0.108-0.827,0.323l-3.45,3.486c-0.24,0.287-0.347,0.587-0.323,0.898
		c0.048,0.383,0.203,0.659,0.467,0.827l9.057,6.792l6.793,9.057c0.216,0.264,0.503,0.419,0.863,0.468h0.072
		c0.336,0,0.611-0.108,0.827-0.323l3.45-3.45c0.311-0.336,0.407-0.707,0.288-1.114l-1.905-6.973l9.309-9.309L57.47,65
		c0.143,0.311,0.395,0.503,0.755,0.575c0.071,0.024,0.156,0.036,0.251,0.036c0.287,0,0.515-0.072,0.682-0.215l4.601-3.45
		c0.407-0.335,0.551-0.731,0.431-1.186l-5.75-25.015l5.786-5.786C66.048,28.138,67.341,26.077,68.108,23.777z"/>
</g>
</svg>
