<?xml version="1.0" encoding="utf-8"?>
<!-- Generator: Adobe Illustrator 17.0.0, SVG Export Plug-In . SVG Version: 6.00 Build 0)  -->
<!DOCTYPE svg PUBLIC "-//W3C//DTD SVG 1.1//EN" "http://www.w3.org/Graphics/SVG/1.1/DTD/svg11.dtd">
<svg version="1.1" xmlns="http://www.w3.org/2000/svg" xmlns:xlink="http://www.w3.org/1999/xlink" x="0px" y="0px"
	 width="84.812px" height="84.132px" viewBox="104.812 0 84.812 84.132" enable-background="new 104.812 0 84.812 84.132"
	 xml:space="preserve">
<g id="Calque_2_1_">
</g>
<g id="Calque_1">
	<g>
		<path fill="#1A1A1A" d="M164.893,55.694c-0.399,0.357-27.695-4.63-29.357-5.33c-1.662-0.7-7.436-10.236-7.436-10.236
			s-0.05,0.008,4.054-1.271c1.024-0.319,2.306-0.718,3.912-1.217C144.11,35.141,164.893,55.694,164.893,55.694z"/>
		<path fill="#1A1A1A" d="M128.099,40.128c0,0-12.511-16.798-14.173-17.06c-1.662-0.262,2.1,7.874,2.1,7.874
			s15.318,18.631,20.783,19.765"/>
		<path fill="#1A1A1A" d="M116.326,31.304c0,0-7.562,1.125-7.999,1.65s8.924,1.662,11.636,1.575
			C122.675,34.441,116.326,31.304,116.326,31.304z"/>
		<path fill="#1A1A1A" d="M150.469,33.027l-3.21,1.506l20.304,12.037c0,0-2.544-7.769-3.594-9.687
			c-0.966-1.766-6.854-5.773-7.784-6.399c-1.498-1.723-4.161-4.753-6.811-7.601c1.246-0.111,2.971-0.636,3.587-2.24
			c0.438-1.147-5.462-0.575-5.462-0.575v0.069c-2-2.315-4.575-4.07-5.294-4.156c-2.187-0.262,1.049,6.999,1.875,8.574
			c0.737,1.404,7.631,6.279,9.162,7.291L150.469,33.027z"/>
	</g>
	<path fill="#1A1A1A" d="M134.384,30.402c0,0,9.59-0.16,27.748,12.263l4.112,2.712c0,0-0.175-0.612,3.762,3.937
		s14.348,15.048,8.049,12.511c-6.299-2.537-21.609-9.974-32.108-16.885c-10.499-6.912-15.31-11.636-13.473-13.998
		C132.896,30.411,134.384,30.402,134.384,30.402z"/>
	<circle fill="#FFFFFF" cx="151.149" cy="43.604" r="1.464"/>
	<circle fill="#FFFFFF" cx="155.874" cy="46.229" r="1.464"/>
	<circle fill="#FFFFFF" cx="160.423" cy="49.203" r="1.464"/>
	
		<ellipse transform="matrix(0.9729 0.2311 -0.2311 0.9729 13.5468 -34.752)" fill="#FFFFFF" cx="155.116" cy="40.45" rx="1.429" ry="0.858"/>
	
		<ellipse transform="matrix(0.9729 0.2311 -0.2311 0.9729 14.2509 -35.6376)" fill="#FFFFFF" cx="159.248" cy="43.013" rx="1.429" ry="0.858"/>
	
		<ellipse transform="matrix(0.9729 0.2311 -0.2311 0.9729 14.9864 -36.4695)" fill="#FFFFFF" cx="163.167" cy="45.736" rx="1.429" ry="0.858"/>
</g>
</svg>
