<?xml version="1.0" encoding="utf-8"?>
<!-- Generator: Adobe Illustrator 17.0.0, SVG Export Plug-In . SVG Version: 6.00 Build 0)  -->
<!DOCTYPE svg PUBLIC "-//W3C//DTD SVG 1.1//EN" "http://www.w3.org/Graphics/SVG/1.1/DTD/svg11.dtd">
<svg version="1.1" id="Layer_1" xmlns="http://www.w3.org/2000/svg" xmlns:xlink="http://www.w3.org/1999/xlink" x="0px" y="0px"
	 width="100px" height="100px" viewBox="0 0 100 100" enable-background="new 0 0 100 100" xml:space="preserve">
<path fill="#FFFFFF" d="M52.94,49.309L98.041,4.05c0.809-0.814,0.809-2.132-0.009-2.944c-0.814-0.805-2.132-0.814-2.944,0.009
	L50,46.36L4.912,1.115c-0.814-0.821-2.13-0.814-2.944-0.009C1.149,1.92,1.149,3.236,1.959,4.05L47.06,49.309L1.959,94.57
	c-0.809,0.814-0.809,2.132,0.009,2.944c0.406,0.404,0.935,0.605,1.469,0.605s1.07-0.204,1.475-0.614L50,52.259l45.088,45.245
	c0.406,0.41,0.944,0.614,1.475,0.614c0.534,0,1.061-0.204,1.469-0.605c0.818-0.814,0.818-2.13,0.009-2.944L52.94,49.309z"/>
</svg>
