<?xml version="1.0" encoding="utf-8"?>
<!-- Generator: Adobe Illustrator 17.0.0, SVG Export Plug-In . SVG Version: 6.00 Build 0)  -->
<!DOCTYPE svg PUBLIC "-//W3C//DTD SVG 1.1//EN" "http://www.w3.org/Graphics/SVG/1.1/DTD/svg11.dtd">
<svg version="1.1" xmlns="http://www.w3.org/2000/svg" xmlns:xlink="http://www.w3.org/1999/xlink" x="0px" y="0px"
	 width="84.812px" height="84.132px" viewBox="0 0 84.812 84.132" enable-background="new 0 0 84.812 84.132" xml:space="preserve">
<g id="Calque_2_1_">
</g>
<g id="Calque_1">
	<circle fill="#1A1A1A" cx="41.906" cy="42.066" r="41.406"/>
	<g>
		<polygon fill="#FFFFFF" points="41.538,54.099 41.538,48.688 39.175,53.294 		"/>
		<polygon fill="#FFFFFF" points="43.38,48.574 43.38,54.119 45.802,53.294 		"/>
		<path fill="#FFFFFF" d="M72.348,31.496c0,6.181-13.881,11.19-31.006,11.19s-31.006-5.009-31.006-11.19
			c0-0.831,0.252-1.636,0.722-2.412c7.728-1.942,18.44-3.148,30.284-3.148s22.556,1.206,30.284,3.148
			C72.096,29.861,72.348,30.665,72.348,31.496z"/>
		<path fill="#FFFFFF" d="M71.948,61.08l-1.543-3.292c0.036-0.127,0.034-0.266-0.027-0.396l-6.234-13.304l-6.21-2.769v-0.38h-2.789
			h-3.508v-0.069H33.289v0.068h-3.509h-2.789v0.33l-6.324,2.82l-6.234,13.305c-0.061,0.129-0.062,0.269-0.027,0.396l-1.543,3.292
			H9.247c0.686,1.206,2.175,2.042,3.905,2.042c1.732,0,3.221-0.838,3.906-2.042h-3.241l1.37-2.923
			c0.121-0.054,0.228-0.146,0.288-0.276l0.769-1.64c0.024-0.003,0.048-0.003,0.073-0.009l6.604-1.76h6.859v1.314h4.381h6.611h3.432
			h10.94v-1.314h6.746l6.604,1.76c0.024,0.006,0.048,0.005,0.073,0.009l0.768,1.64c0.061,0.13,0.166,0.222,0.288,0.276l1.37,2.923
			h-3.241c0.686,1.205,2.174,2.042,3.906,2.042c1.731,0,3.22-0.838,3.905-2.042H71.948z M22.555,53.397l-5.679,1.496l4.334-9.248
			l4.456,5.552L22.555,53.397z M26.991,53.319h-2.333l2.333-1.648V53.319z M26.991,51.01l-5.013-6.247l5.013-2.234V51.01z
			 M57.933,42.579l4.899,2.184l-4.899,6.106V42.579z M42.459,41.651c0.41,0,0.754,0.271,0.873,0.642h-1.747
			C41.705,41.923,42.049,41.651,42.459,41.651z M57.933,53.319V51.75l2.22,1.569H57.933z M62.256,53.397l-3.11-2.2l4.456-5.552
			l4.334,9.248L62.256,53.397z"/>
		<path fill="#FFFFFF" d="M72.348,31.496c0,6.181-13.881,11.19-31.006,11.19s-31.006-5.009-31.006-11.19
			c0-0.831,0.252-1.636,0.722-2.412c7.728-1.942,18.44-3.148,30.284-3.148s22.556,1.206,30.284,3.148
			C72.096,29.861,72.348,30.665,72.348,31.496z"/>
		<g>
			
				<rect x="34.373" y="14.866" transform="matrix(-0.7905 -0.6124 0.6124 -0.7905 48.6736 60.3495)" fill="#FCFCFC" stroke="#FFFFFF" stroke-width="0.5" stroke-miterlimit="10" width="0.568" height="13.97"/>
			
				<rect x="34.373" y="14.866" transform="matrix(0.9924 -0.1233 0.1233 0.9924 -2.4294 4.4392)" fill="#FCFCFC" stroke="#FFFFFF" stroke-width="0.5" stroke-miterlimit="10" width="0.568" height="13.97"/>
			
				<rect x="47.519" y="14.866" transform="matrix(-0.9967 -0.081 0.081 -0.9967 93.6779 47.5039)" fill="#FCFCFC" stroke="#FFFFFF" stroke-width="0.5" stroke-miterlimit="10" width="0.568" height="13.97"/>
			
				<rect x="47.519" y="14.866" transform="matrix(0.7638 -0.6454 0.6454 0.7638 -2.8133 36.0135)" fill="#FCFCFC" stroke="#FFFFFF" stroke-width="0.5" stroke-miterlimit="10" width="0.568" height="13.97"/>
			
				<ellipse fill="#FCFCFC" stroke="#FFFFFF" stroke-width="0.5" stroke-miterlimit="10" cx="40.961" cy="15.087" rx="8.689" ry="2.044"/>
		</g>
		<g>
			<path fill="#FFFFFF" d="M41.035,13.714l1.765-0.285c0,0-0.961-0.675-1.283-1.735c-0.253-0.834-0.422-1.071-0.482-1.134v-0.022
				c0,0-0.005,0.003-0.013,0.01c-0.008-0.007-0.013-0.01-0.013-0.01v0.022c-0.061,0.063-0.229,0.3-0.482,1.134
				c-0.322,1.06-1.283,1.735-1.283,1.735l1.765,0.285v0.004l0.013-0.002l0.013,0.002V13.714z"/>
		</g>
	</g>
</g>
</svg>
