<?xml version="1.0" encoding="utf-8"?>
<!-- Generator: Adobe Illustrator 17.0.0, SVG Export Plug-In . SVG Version: 6.00 Build 0)  -->
<!DOCTYPE svg PUBLIC "-//W3C//DTD SVG 1.1//EN" "http://www.w3.org/Graphics/SVG/1.1/DTD/svg11.dtd">
<svg version="1.1" xmlns="http://www.w3.org/2000/svg" xmlns:xlink="http://www.w3.org/1999/xlink" x="0px" y="0px" width="100px"
	 height="100px" viewBox="0 0 100 100" enable-background="new 0 0 100 100" xml:space="preserve">
<g id="Calque_1">
</g>
<g id="Calque_2">
	<circle fill="#FFFFFF" cx="44.406" cy="42.726" r="41.406"/>
	<g>
		<path fill="#333333" d="M30.596,42.553l-1.804-0.273c-0.338-0.05-0.68,0.057-0.926,0.295c-0.246,0.238-0.368,0.576-0.328,0.915
			l1.887,16.624c0.025,0.237,0.224,0.413,0.459,0.413h0.008c0.241-0.003,0.436-0.191,0.451-0.431l0.969-16.657
			C31.336,43.003,31.027,42.62,30.596,42.553z"/>
		<path fill="#333333" d="M48.554,45.474l-14.975-2.28c-0.126-0.019-0.257,0.013-0.358,0.092c-0.101,0.079-0.166,0.196-0.178,0.325
			l-1.49,16.934c-0.017,0.181,0.077,0.357,0.24,0.445c0.069,0.038,0.144,0.055,0.221,0.055c0.099,0,0.199-0.032,0.282-0.095
			l16.467-14.656c0.145-0.115,0.21-0.303,0.164-0.48C48.883,45.635,48.736,45.504,48.554,45.474z"/>
		<path fill="#333333" d="M72.965,27.59c-0.123-0.158-0.331-0.222-0.519-0.156L16.128,38.021c-0.215,0.036-0.372,0.224-0.376,0.442
			c-0.005,0.218,0.145,0.413,0.358,0.459l12.098,2.16c0.6,0.107,1.215,0.069,1.797-0.106l30.069-9.084l-25.307,9.452
			c-0.205,0.062-0.341,0.257-0.325,0.47c0.014,0.213,0.172,0.39,0.383,0.424l24.548,3.89c0.72,0.114,1.442-0.197,1.856-0.8
			l11.749-17.198C73.091,27.965,73.085,27.747,72.965,27.59z"/>
	</g>
</g>
</svg>
