<?xml version="1.0" encoding="utf-8"?>
<!-- Generator: Adobe Illustrator 17.0.0, SVG Export Plug-In . SVG Version: 6.00 Build 0)  -->
<!DOCTYPE svg PUBLIC "-//W3C//DTD SVG 1.1//EN" "http://www.w3.org/Graphics/SVG/1.1/DTD/svg11.dtd">
<svg version="1.1" xmlns="http://www.w3.org/2000/svg" xmlns:xlink="http://www.w3.org/1999/xlink" x="0px" y="0px" width="100px"
	 height="100px" viewBox="0 0 100 100" enable-background="new 0 0 100 100" xml:space="preserve">
<g id="Calque_1">
</g>
<g id="Calque_2">
	<circle fill="#FFFFFF" cx="43.406" cy="42.726" r="41.406"/>
	<g>
		<g id="Forme_2_copie_2_">
			<g>
				<path fill="#303438" d="M64.801,18.072C48.281,17.923,37.459,28.898,31.11,38.648c-1.215-0.56-5.997-2.477-8.263,0.857
					c-2.606,3.837-7.462,11.65-7.39,12.506c0.07,0.856,6.868-4.365,8.252-2.242c0.399,0.612,0.692,1.077,0.919,1.446
					c-0.529,1.352-0.788,2.16-0.788,2.16c-0.426,1.284,0.328,1.868,0.328,1.868l0.508,0.429c-0.72,2.08,0.307,3.119,0.307,3.119
					s5.841,4.937,6.675,5.641c0.678,0.573,2.251-0.173,2.822-0.475l0.441,0.373c0,0,0.702,0.648,1.896,0.013
					c0,0,0.753-0.39,1.997-1.137c0.402,0.163,0.908,0.374,1.579,0.666c2.326,1.011-1.69,8.583-0.834,8.51
					c0.855-0.07,7.751-6.162,11.099-9.371c2.91-2.79,0.222-7.186-0.532-8.29C58.682,46.835,67.701,34.336,64.801,18.072z"/>
			</g>
		</g>
		<g id="Ellipse_1_2_">
			<g>
				<circle fill="#FFFFFF" cx="46.91" cy="38.865" r="6.02"/>
			</g>
		</g>
	</g>
</g>
</svg>
