<?xml version="1.0" encoding="utf-8"?>
<!-- Generator: Adobe Illustrator 17.0.0, SVG Export Plug-In . SVG Version: 6.00 Build 0)  -->
<!DOCTYPE svg PUBLIC "-//W3C//DTD SVG 1.1//EN" "http://www.w3.org/Graphics/SVG/1.1/DTD/svg11.dtd">
<svg version="1.1" id="Capa_1" xmlns="http://www.w3.org/2000/svg" xmlns:xlink="http://www.w3.org/1999/xlink" x="0px" y="0px"
	 width="16.002px" height="13.275px" viewBox="0 0 16.002 13.275" enable-background="new 0 0 16.002 13.275" xml:space="preserve">
<path fill="#FFFFFF" d="M15.87,1.637c-0.579,0.257-1.201,0.431-1.854,0.509c0.667-0.399,1.177-1.033,1.419-1.785
	c-0.625,0.37-1.316,0.638-2.052,0.784c-0.588-0.629-1.427-1.02-2.356-1.02c-1.783,0-3.229,1.446-3.229,3.228
	c0,0.253,0.029,0.5,0.084,0.736c-2.683-0.135-5.063-1.42-6.655-3.374C0.949,1.191,0.79,1.746,0.79,2.338
	c0,1.12,0.57,2.109,1.436,2.687C1.697,5.007,1.199,4.862,0.764,4.62v0.04c0,1.564,1.113,2.869,2.59,3.166
	c-0.27,0.073-0.556,0.113-0.851,0.113c-0.209,0-0.41-0.021-0.608-0.059c0.411,1.283,1.603,2.216,3.016,2.243
	c-1.105,0.866-2.497,1.381-4.01,1.381c-0.261,0-0.517-0.016-0.77-0.044c1.429,0.917,3.126,1.452,4.949,1.452
	c5.939,0,9.187-4.92,9.187-9.187l-0.011-0.418C14.889,2.853,15.438,2.285,15.87,1.637z"/>
</svg>
