<?xml version="1.0" encoding="utf-8"?>
<!-- Generator: Adobe Illustrator 17.0.0, SVG Export Plug-In . SVG Version: 6.00 Build 0)  -->
<!DOCTYPE svg PUBLIC "-//W3C//DTD SVG 1.1//EN" "http://www.w3.org/Graphics/SVG/1.1/DTD/svg11.dtd">
<svg version="1.1" id="Calque_1" xmlns="http://www.w3.org/2000/svg" xmlns:xlink="http://www.w3.org/1999/xlink" x="0px" y="0px"
	 width="100px" height="100px" viewBox="120 0 100 100" enable-background="new 120 0 100 100" xml:space="preserve">
<g id="Forme_2_copie_2_">
	<g>
		<path fill="#F7F763" d="M196.094,37.929c-4.653-6.848-14.657-2.54-16.634-1.598c-13.141-16.814-32.467-33.55-58.141-35.559l0,0v0
			h0l0,0c-1.718,24.755,11.202,46.185,25.286,61.895l-0.01-0.007c0,0-8.074,10.607-1.425,16.983
			c6.648,6.372,20.342,18.47,22.039,18.609c1.699,0.145-6.275-14.892-1.657-16.898c0.228-0.099,0.44-0.19,0.65-0.281
			c7.651,6.11,13.183,9.472,13.183,9.472c2.224,1.385,3.337,0.336,3.337,0.336l8.608-7.273l0,0l8.959-7.573
			c0,0,1.266-0.962,0.297-3.409c0,0-2.172-5.658-6.541-13.796c0.11-0.17,0.219-0.338,0.337-0.52
			c2.748-4.214,16.246,6.152,16.386,4.453C210.913,61.063,201.27,45.548,196.094,37.929z"/>
	</g>
</g>
<g id="Ellipse_1_2_">
	<g>
		<circle fill="#191E1C" cx="156.847" cy="42.756" r="11.006"/>
	</g>
</g>
</svg>
